<svg width="201" height="183" viewBox="0 0 201 183" fill="none" xmlns="http://www.w3.org/2000/svg">
<path d="M101 1.14938L161 35.1494V103.149L101 137.149L41 103.149V35.1494L101 1.14938Z" fill="#0A3D8F" stroke="#F5C518" stroke-width="2"/>
<path opacity="0.35" d="M101 11.1494L153 41.1494V97.1494L101 127.149L49 97.1494V41.1494L101 11.1494Z" stroke="#F5C518" stroke-width="0.6"/>
<path d="M124 45.1494H78C76.8954 45.1494 76 46.0448 76 47.1494V51.1494C76 52.254 76.8954 53.1494 78 53.1494H124C125.105 53.1494 126 52.254 126 51.1494V47.1494C126 46.0448 125.105 45.1494 124 45.1494Z" fill="#F5C518"/>
<path d="M126 49.1494L136 63.1494" stroke="#F5C518" stroke-width="1.5" stroke-linecap="round"/>
<path d="M136 69.1494C137.657 69.1494 139 67.8062 139 66.1494C139 64.4925 137.657 63.1494 136 63.1494C134.343 63.1494 133 64.4925 133 66.1494C133 67.8062 134.343 69.1494 136 69.1494Z" fill="#F5C518"/>
<path d="M85 53.1494L101 61.1494L117 53.1494V71.1494C117 76.4827 111.667 80.4827 101 83.1494C90.3333 80.4827 85 76.4827 85 71.1494V53.1494Z" fill="#D4A800"/>
<path d="M123.882 49.1494L101 60.5898L78.1182 49.1494L101 37.708L123.882 49.1494Z" fill="url(#paint0_linear_15_46)" stroke="#0A3D8F"/>
<path opacity="0.5" d="M55 111.149C65.6667 99.1494 81 91.8161 101 89.1494C121 91.8161 136.333 99.1494 147 111.149" stroke="#F5C518" stroke-width="2" stroke-linecap="round"/>
<path opacity="0.5" d="M65.5 118.149H60.5C59.6716 118.149 59 118.821 59 119.649V130.649C59 131.478 59.6716 132.149 60.5 132.149H65.5C66.3284 132.149 67 131.478 67 130.649V119.649C67 118.821 66.3284 118.149 65.5 118.149Z" fill="#F5C518"/>
<path opacity="0.7" d="M77.5 111.149H72.5C71.6716 111.149 71 111.821 71 112.649V130.649C71 131.478 71.6716 132.149 72.5 132.149H77.5C78.3284 132.149 79 131.478 79 130.649V112.649C79 111.821 78.3284 111.149 77.5 111.149Z" fill="#F5C518"/>
<path d="M89.5 104.149H84.5C83.6716 104.149 83 104.821 83 105.649V130.649C83 131.478 83.6716 132.149 84.5 132.149H89.5C90.3284 132.149 91 131.478 91 130.649V105.649C91 104.821 90.3284 104.149 89.5 104.149Z" fill="#F5C518"/>
<path d="M101.5 109.149H96.5C95.6716 109.149 95 109.821 95 110.649V130.649C95 131.478 95.6716 132.149 96.5 132.149H101.5C102.328 132.149 103 131.478 103 130.649V110.649C103 109.821 102.328 109.149 101.5 109.149Z" fill="#D4A800"/>
<path d="M113.5 106.149H108.5C107.672 106.149 107 106.821 107 107.649V130.649C107 131.478 107.672 132.149 108.5 132.149H113.5C114.328 132.149 115 131.478 115 130.649V107.649C115 106.821 114.328 106.149 113.5 106.149Z" fill="#F5C518"/>
<path opacity="0.7" d="M125.5 112.149H120.5C119.672 112.149 119 112.821 119 113.649V130.649C119 131.478 119.672 132.149 120.5 132.149H125.5C126.328 132.149 127 131.478 127 130.649V113.649C127 112.821 126.328 112.149 125.5 112.149Z" fill="#F5C518"/>
<path opacity="0.5" d="M137.5 118.149H132.5C131.672 118.149 131 118.821 131 119.649V130.649C131 131.478 131.672 132.149 132.5 132.149H137.5C138.328 132.149 139 131.478 139 130.649V119.649C139 118.821 138.328 118.149 137.5 118.149Z" fill="#F5C518"/>
<path opacity="0.55" d="M63 125.149L75 116.149L87 107.149L99 111.149L111 107.149L123 114.149L135 125.149" stroke="white" stroke-width="1.4" stroke-linecap="round" stroke-linejoin="round"/>
<path d="M15.2713 166.159H6.93133L5.55133 170.149H1.14133L8.67133 149.179H13.5613L21.0913 170.149H16.6513L15.2713 166.159ZM14.1313 162.799L11.1013 154.039L8.07133 162.799H14.1313ZM28.1059 147.949V170.149H23.9059V147.949H28.1059ZM47.9455 153.529V170.149H43.7155V168.049C43.1755 168.769 42.4655 169.339 41.5855 169.759C40.7255 170.159 39.7855 170.359 38.7655 170.359C37.4655 170.359 36.3155 170.089 35.3155 169.549C34.3155 168.989 33.5255 168.179 32.9455 167.119C32.3855 166.039 32.1055 164.759 32.1055 163.279V153.529H36.3055V162.679C36.3055 163.999 36.6355 165.019 37.2955 165.739C37.9555 166.439 38.8555 166.789 39.9955 166.789C41.1555 166.789 42.0655 166.439 42.7255 165.739C43.3855 165.019 43.7155 163.999 43.7155 162.679V153.529H47.9455ZM72.7295 153.289C74.7695 153.289 76.4095 153.919 77.6495 155.179C78.9095 156.419 79.5395 158.159 79.5395 160.399V170.149H75.3395V160.969C75.3395 159.669 75.0095 158.679 74.3495 157.999C73.6895 157.299 72.7895 156.949 71.6495 156.949C70.5095 156.949 69.5995 157.299 68.9195 157.999C68.2595 158.679 67.9295 159.669 67.9295 160.969V170.149H63.7295V160.969C63.7295 159.669 63.3995 158.679 62.7395 157.999C62.0795 157.299 61.1795 156.949 60.0395 156.949C58.8795 156.949 57.9595 157.299 57.2795 157.999C56.6195 158.679 56.2895 159.669 56.2895 160.969V170.149H52.0895V153.529H56.2895V155.539C56.8295 154.839 57.5195 154.289 58.3595 153.889C59.2195 153.489 60.1595 153.289 61.1795 153.289C62.4795 153.289 63.6395 153.569 64.6595 154.129C65.6795 154.669 66.4695 155.449 67.0295 156.469C67.5695 155.509 68.3495 154.739 69.3695 154.159C70.4095 153.579 71.5295 153.289 72.7295 153.289ZM92.7351 153.289C94.7151 153.289 96.3151 153.919 97.5351 155.179C98.7551 156.419 99.3651 158.159 99.3651 160.399V170.149H95.1651V160.969C95.1651 159.649 94.8351 158.639 94.1751 157.939C93.5151 157.219 92.6151 156.859 91.4751 156.859C90.3151 156.859 89.3951 157.219 88.7151 157.939C88.0551 158.639 87.7251 159.649 87.7251 160.969V170.149H83.5251V153.529H87.7251V155.599C88.2851 154.879 88.9951 154.319 89.8551 153.919C90.7351 153.499 91.6951 153.289 92.7351 153.289ZM105.489 151.549C104.749 151.549 104.129 151.319 103.629 150.859C103.149 150.379 102.909 149.789 102.909 149.089C102.909 148.389 103.149 147.809 103.629 147.349C104.129 146.869 104.749 146.629 105.489 146.629C106.229 146.629 106.839 146.869 107.319 147.349C107.819 147.809 108.069 148.389 108.069 149.089C108.069 149.789 107.819 150.379 107.319 150.859C106.839 151.319 106.229 151.549 105.489 151.549ZM107.559 153.529V170.149H103.359V153.529H107.559Z" fill="white"/>
<path d="M131.649 149.209V152.599H126.069V170.149H121.869V152.599H116.289V149.209H131.649ZM138.914 156.109C139.454 155.229 140.154 154.539 141.014 154.039C141.894 153.539 142.894 153.289 144.014 153.289V157.699H142.904C141.584 157.699 140.584 158.009 139.904 158.629C139.244 159.249 138.914 160.329 138.914 161.869V170.149H134.714V153.529H138.914V156.109ZM145.762 161.779C145.762 160.099 146.092 158.609 146.752 157.309C147.432 156.009 148.342 155.009 149.482 154.309C150.642 153.609 151.932 153.259 153.352 153.259C154.592 153.259 155.672 153.509 156.592 154.009C157.532 154.509 158.282 155.139 158.842 155.899V153.529H163.072V170.149H158.842V167.719C158.302 168.499 157.552 169.149 156.592 169.669C155.652 170.169 154.562 170.419 153.322 170.419C151.922 170.419 150.642 170.059 149.482 169.339C148.342 168.619 147.432 167.609 146.752 166.309C146.092 164.989 145.762 163.479 145.762 161.779ZM158.842 161.839C158.842 160.819 158.642 159.949 158.242 159.229C157.842 158.489 157.302 157.929 156.622 157.549C155.942 157.149 155.212 156.949 154.432 156.949C153.652 156.949 152.932 157.139 152.272 157.519C151.612 157.899 151.072 158.459 150.652 159.199C150.252 159.919 150.052 160.779 150.052 161.779C150.052 162.779 150.252 163.659 150.652 164.419C151.072 165.159 151.612 165.729 152.272 166.129C152.952 166.529 153.672 166.729 154.432 166.729C155.212 166.729 155.942 166.539 156.622 166.159C157.302 165.759 157.842 165.199 158.242 164.479C158.642 163.739 158.842 162.859 158.842 161.839ZM166.094 161.839C166.094 160.119 166.444 158.619 167.144 157.339C167.844 156.039 168.814 155.039 170.054 154.339C171.294 153.619 172.714 153.259 174.314 153.259C176.374 153.259 178.074 153.779 179.414 154.819C180.774 155.839 181.684 157.279 182.144 159.139H177.614C177.374 158.419 176.964 157.859 176.384 157.459C175.824 157.039 175.124 156.829 174.284 156.829C173.084 156.829 172.134 157.269 171.434 158.149C170.734 159.009 170.384 160.239 170.384 161.839C170.384 163.419 170.734 164.649 171.434 165.529C172.134 166.389 173.084 166.819 174.284 166.819C175.984 166.819 177.094 166.059 177.614 164.539H182.144C181.684 166.339 180.774 167.769 179.414 168.829C178.054 169.889 176.354 170.419 174.314 170.419C172.714 170.419 171.294 170.069 170.054 169.369C168.814 168.649 167.844 167.649 167.144 166.369C166.444 165.069 166.094 163.559 166.094 161.839ZM195.061 170.149L189.421 163.069V170.149H185.221V147.949H189.421V160.579L195.001 153.529H200.461L193.141 161.869L200.521 170.149H195.061Z" fill="#F5C518"/>
<defs>
<linearGradient id="paint0_linear_15_46" x1="77" y1="37.1494" x2="77" y2="61.1494" gradientUnits="userSpaceOnUse">
<stop stop-color="#FFD740"/>
<stop offset="1" stop-color="#D4A800"/>
</linearGradient>
</defs>
</svg>
