<svg width="296" height="91" viewBox="0 0 296 91" fill="none" xmlns="http://www.w3.org/2000/svg">
<path d="M39.8235 1.14941L78.6471 23.1494V67.1494L39.8235 89.1494L1 67.1494V23.1494L39.8235 1.14941Z" fill="#0A3D8F" stroke="#F5C518" stroke-width="2"/>
<path opacity="0.35" d="M39.8233 7.62L73.4704 27.0318V63.2671L39.8233 82.6788L6.17627 63.2671V27.0318L39.8233 7.62Z" stroke="#F5C518" stroke-width="0.6"/>
<path d="M54.7058 29.62H24.9411C24.2264 29.62 23.647 30.1994 23.647 30.9141V33.5023C23.647 34.2171 24.2264 34.7965 24.9411 34.7965H54.7058C55.4205 34.7965 55.9999 34.2171 55.9999 33.5023V30.9141C55.9999 30.1994 55.4205 29.62 54.7058 29.62Z" fill="#F5C518"/>
<path d="M56 32.2083L62.4706 41.2671" stroke="#F5C518" stroke-width="1.5" stroke-linecap="round"/>
<path d="M62.4705 45.1494C63.5426 45.1494 64.4116 44.2803 64.4116 43.2083C64.4116 42.1362 63.5426 41.2671 62.4705 41.2671C61.3984 41.2671 60.5293 42.1362 60.5293 43.2083C60.5293 44.2803 61.3984 45.1494 62.4705 45.1494Z" fill="#F5C518"/>
<path d="M29.4707 34.7964L39.8236 39.9729L50.1766 34.7964V46.4435C50.1766 49.8945 46.7256 52.4827 39.8236 54.2082C32.9217 52.4827 29.4707 49.8945 29.4707 46.4435V34.7964Z" fill="#D4A800"/>
<path d="M54.2344 32.2082L39.8232 39.4133L25.4121 32.2082L39.8232 25.0021L54.2344 32.2082Z" fill="url(#paint0_linear_21_69)" stroke="#0A3D8F"/>
<path opacity="0.5" d="M10.0586 72.3259C16.9606 64.5612 26.8821 59.8161 39.8233 58.0906C52.7645 59.8161 62.686 64.5612 69.588 72.3259" stroke="#F5C518" stroke-width="2" stroke-linecap="round"/>
<path opacity="0.5" d="M16.8529 76.8553H13.6176C13.0815 76.8553 12.647 77.2898 12.647 77.8259V84.9435C12.647 85.4796 13.0815 85.9141 13.6176 85.9141H16.8529C17.3889 85.9141 17.8234 85.4796 17.8234 84.9435V77.8259C17.8234 77.2898 17.3889 76.8553 16.8529 76.8553Z" fill="#F5C518"/>
<path opacity="0.7" d="M24.6175 72.3259H21.3822C20.8462 72.3259 20.4116 72.7604 20.4116 73.2965V84.9435C20.4116 85.4796 20.8462 85.9141 21.3822 85.9141H24.6175C25.1535 85.9141 25.5881 85.4796 25.5881 84.9435V73.2965C25.5881 72.7604 25.1535 72.3259 24.6175 72.3259Z" fill="#F5C518"/>
<path d="M32.3822 67.7964H29.1469C28.6108 67.7964 28.1763 68.231 28.1763 68.767V84.9435C28.1763 85.4795 28.6108 85.9141 29.1469 85.9141H32.3822C32.9182 85.9141 33.3527 85.4795 33.3527 84.9435V68.767C33.3527 68.231 32.9182 67.7964 32.3822 67.7964Z" fill="#F5C518"/>
<path d="M40.1473 71.0317H36.912C36.376 71.0317 35.9414 71.4663 35.9414 72.0023V84.9435C35.9414 85.4795 36.376 85.9141 36.912 85.9141H40.1473C40.6833 85.9141 41.1179 85.4795 41.1179 84.9435V72.0023C41.1179 71.4663 40.6833 71.0317 40.1473 71.0317Z" fill="#D4A800"/>
<path d="M47.9119 69.0906H44.6766C44.1406 69.0906 43.7061 69.5251 43.7061 70.0612V84.9435C43.7061 85.4796 44.1406 85.9141 44.6766 85.9141H47.9119C48.448 85.9141 48.8825 85.4796 48.8825 84.9435V70.0612C48.8825 69.5251 48.448 69.0906 47.9119 69.0906Z" fill="#F5C518"/>
<path opacity="0.7" d="M55.6766 72.973H52.4413C51.9053 72.973 51.4707 73.4075 51.4707 73.9435V84.9436C51.4707 85.4796 51.9053 85.9141 52.4413 85.9141H55.6766C56.2126 85.9141 56.6472 85.4796 56.6472 84.9436V73.9435C56.6472 73.4075 56.2126 72.973 55.6766 72.973Z" fill="#F5C518"/>
<path opacity="0.5" d="M63.4412 76.8553H60.2059C59.6699 76.8553 59.2354 77.2898 59.2354 77.8259V84.9435C59.2354 85.4796 59.6699 85.9141 60.2059 85.9141H63.4412C63.9773 85.9141 64.4118 85.4796 64.4118 84.9435V77.8259C64.4118 77.2898 63.9773 76.8553 63.4412 76.8553Z" fill="#F5C518"/>
<path opacity="0.55" d="M15.2354 81.3847L23.0001 75.5612L30.7648 69.7377L38.5295 72.3259L46.2942 69.7377L54.0589 74.2671L61.8236 81.3847" stroke="white" stroke-width="1.4" stroke-linecap="round" stroke-linejoin="round"/>
<path d="M110.271 51.1594H101.931L100.551 55.1494H96.1413L103.671 34.1794H108.561L116.091 55.1494H111.651L110.271 51.1594ZM109.131 47.7994L106.101 39.0394L103.071 47.7994H109.131ZM123.106 32.9494V55.1494H118.906V32.9494H123.106ZM142.946 38.5294V55.1494H138.716V53.0494C138.176 53.7694 137.466 54.3394 136.586 54.7594C135.726 55.1594 134.786 55.3594 133.766 55.3594C132.466 55.3594 131.316 55.0894 130.316 54.5494C129.316 53.9894 128.526 53.1794 127.946 52.1194C127.386 51.0394 127.106 49.7594 127.106 48.2794V38.5294H131.306V47.6794C131.306 48.9994 131.636 50.0194 132.296 50.7394C132.956 51.4394 133.856 51.7894 134.996 51.7894C136.156 51.7894 137.066 51.4394 137.726 50.7394C138.386 50.0194 138.716 48.9994 138.716 47.6794V38.5294H142.946ZM167.73 38.2894C169.77 38.2894 171.41 38.9194 172.65 40.1794C173.91 41.4194 174.54 43.1594 174.54 45.3994V55.1494H170.34V45.9694C170.34 44.6694 170.01 43.6794 169.35 42.9994C168.69 42.2994 167.79 41.9494 166.65 41.9494C165.51 41.9494 164.6 42.2994 163.92 42.9994C163.26 43.6794 162.93 44.6694 162.93 45.9694V55.1494H158.73V45.9694C158.73 44.6694 158.4 43.6794 157.74 42.9994C157.08 42.2994 156.18 41.9494 155.04 41.9494C153.88 41.9494 152.96 42.2994 152.28 42.9994C151.62 43.6794 151.29 44.6694 151.29 45.9694V55.1494H147.09V38.5294H151.29V40.5394C151.83 39.8394 152.52 39.2894 153.36 38.8894C154.22 38.4894 155.16 38.2894 156.18 38.2894C157.48 38.2894 158.64 38.5694 159.66 39.1294C160.68 39.6694 161.47 40.4494 162.03 41.4694C162.57 40.5094 163.35 39.7394 164.37 39.1594C165.41 38.5794 166.53 38.2894 167.73 38.2894ZM187.735 38.2894C189.715 38.2894 191.315 38.9194 192.535 40.1794C193.755 41.4194 194.365 43.1594 194.365 45.3994V55.1494H190.165V45.9694C190.165 44.6494 189.835 43.6394 189.175 42.9394C188.515 42.2194 187.615 41.8594 186.475 41.8594C185.315 41.8594 184.395 42.2194 183.715 42.9394C183.055 43.6394 182.725 44.6494 182.725 45.9694V55.1494H178.525V38.5294H182.725V40.5994C183.285 39.8794 183.995 39.3194 184.855 38.9194C185.735 38.4994 186.695 38.2894 187.735 38.2894ZM200.489 36.5494C199.749 36.5494 199.129 36.3194 198.629 35.8594C198.149 35.3794 197.909 34.7894 197.909 34.0894C197.909 33.3894 198.149 32.8094 198.629 32.3494C199.129 31.8694 199.749 31.6294 200.489 31.6294C201.229 31.6294 201.839 31.8694 202.319 32.3494C202.819 32.8094 203.069 33.3894 203.069 34.0894C203.069 34.7894 202.819 35.3794 202.319 35.8594C201.839 36.3194 201.229 36.5494 200.489 36.5494ZM202.559 38.5294V55.1494H198.359V38.5294H202.559Z" fill="white"/>
<path d="M226.649 34.2094V37.5994H221.069V55.1494H216.869V37.5994H211.289V34.2094H226.649ZM233.914 41.1094C234.454 40.2294 235.154 39.5394 236.014 39.0394C236.894 38.5394 237.894 38.2894 239.014 38.2894V42.6994H237.904C236.584 42.6994 235.584 43.0094 234.904 43.6294C234.244 44.2494 233.914 45.3294 233.914 46.8694V55.1494H229.714V38.5294H233.914V41.1094ZM240.762 46.7794C240.762 45.0994 241.092 43.6094 241.752 42.3094C242.432 41.0094 243.342 40.0094 244.482 39.3094C245.642 38.6094 246.932 38.2594 248.352 38.2594C249.592 38.2594 250.672 38.5094 251.592 39.0094C252.532 39.5094 253.282 40.1394 253.842 40.8994V38.5294H258.072V55.1494H253.842V52.7194C253.302 53.4994 252.552 54.1494 251.592 54.6694C250.652 55.1694 249.562 55.4194 248.322 55.4194C246.922 55.4194 245.642 55.0594 244.482 54.3394C243.342 53.6194 242.432 52.6094 241.752 51.3094C241.092 49.9894 240.762 48.4794 240.762 46.7794ZM253.842 46.8394C253.842 45.8194 253.642 44.9494 253.242 44.2294C252.842 43.4894 252.302 42.9294 251.622 42.5494C250.942 42.1494 250.212 41.9494 249.432 41.9494C248.652 41.9494 247.932 42.1394 247.272 42.5194C246.612 42.8994 246.072 43.4594 245.652 44.1994C245.252 44.9194 245.052 45.7794 245.052 46.7794C245.052 47.7794 245.252 48.6594 245.652 49.4194C246.072 50.1594 246.612 50.7294 247.272 51.1294C247.952 51.5294 248.672 51.7294 249.432 51.7294C250.212 51.7294 250.942 51.5394 251.622 51.1594C252.302 50.7594 252.842 50.1994 253.242 49.4794C253.642 48.7394 253.842 47.8594 253.842 46.8394ZM261.094 46.8394C261.094 45.1194 261.444 43.6194 262.144 42.3394C262.844 41.0394 263.814 40.0394 265.054 39.3394C266.294 38.6194 267.714 38.2594 269.314 38.2594C271.374 38.2594 273.074 38.7794 274.414 39.8194C275.774 40.8394 276.684 42.2794 277.144 44.1394H272.614C272.374 43.4194 271.964 42.8594 271.384 42.4594C270.824 42.0394 270.124 41.8294 269.284 41.8294C268.084 41.8294 267.134 42.2694 266.434 43.1494C265.734 44.0094 265.384 45.2394 265.384 46.8394C265.384 48.4194 265.734 49.6494 266.434 50.5294C267.134 51.3894 268.084 51.8194 269.284 51.8194C270.984 51.8194 272.094 51.0594 272.614 49.5394H277.144C276.684 51.3394 275.774 52.7694 274.414 53.8294C273.054 54.8894 271.354 55.4194 269.314 55.4194C267.714 55.4194 266.294 55.0694 265.054 54.3694C263.814 53.6494 262.844 52.6494 262.144 51.3694C261.444 50.0694 261.094 48.5594 261.094 46.8394ZM290.061 55.1494L284.421 48.0694V55.1494H280.221V32.9494H284.421V45.5794L290.001 38.5294H295.461L288.141 46.8694L295.521 55.1494H290.061Z" fill="#F5C518"/>
<defs>
<linearGradient id="paint0_linear_21_69" x1="24.2939" y1="24.4435" x2="24.2939" y2="39.973" gradientUnits="userSpaceOnUse">
<stop stop-color="#FFD740"/>
<stop offset="1" stop-color="#D4A800"/>
</linearGradient>
</defs>
</svg>
